# xmcd
#
# Track frame offsets:
#	150
#	20290
#	45060
#	61155
#	81060
#	105850
#	128307
#	151577
#	171650
#	192980
#
# Disc length: 2842 seconds
#
# Revision: 1
# Processed by: cddbd v1.5.2PL0 Copyright (c) Steve Scherf et al.
# Submitted via: EZCDAudioConverter 8.0.2.1
#
DISCID=620b180a
DTITLE=Various Artist - Chiều Qua Phà Hậu Giang
DYEAR=2002
DGENRE=World Pop
TTITLE0=Phi Nhung - Chiều Qua Phà Hậu Giang
TTITLE1=Trường Vũ - Hát cho mai sau
TTITLE2=Phương Diễm Hạnh - Một lần dang dở
TTITLE3=Mạnh Quỳnh - Lính xa nhà
TTITLE4=Tâm Đoan - Ngày đá đơm bông
TTITLE5=Quang Lê - Thư xuân trên rừng cao
TTITLE6=Thế Sơn - Ngày vui qua mau
TTITLE7=Mỹ Huyền - Người tình và quê huong
TTITLE8=Quang Lê - Tâm sự người hát bài quê hương
TTITLE9=Lynda Trang Đài, Tommy Ngô - Hai trái tim vàng
EXTD=
EXTT0=
EXTT1=
EXTT2=
EXTT3=
EXTT4=
EXTT5=
EXTT6=
EXTT7=
EXTT8=
EXTT9=
PLAYORDER=
